{
    "asset" : {
        "generator" : "Khronos glTF Blender I/O v1.6.16",
        "version" : "2.0"
    },
    "scene" : 0,
    "scenes" : [
        {
            "name" : "Scene",
            "nodes" : [
                0,
                1,
                2,
                3
            ]
        }
    ],
    "nodes" : [
        {
            "name" : "Light",
            "rotation" : [
                0.16907575726509094,
                0.7558803558349609,
                -0.27217137813568115,
                0.570947527885437
            ],
            "scale" : [
                0.10662955045700073,
                0.10662966966629028,
                0.10662984848022461
            ],
            "translation" : [
                3.7650675773620605,
                3.802354574203491,
                1.1924281120300293
            ]
        },
        {
            "name" : "Camera",
            "rotation" : [
                -0.5541473031044006,
                -0.146348237991333,
                0.09970652312040329,
                -0.8133643865585327
            ],
            "translation" : [
                0.6442391276359558,
                0.7267881631851196,
                1.7323036193847656
            ]
        },
        {
            "mesh" : 0,
            "name" : "Dnut",
            "scale" : [
                0.10000002384185791,
                0.10000002384185791,
                0.10000002384185791
            ],
            "translation" : [
                0,
                0.059999994933605194,
                0
            ]
        },
        {
            "mesh" : 1,
            "name" : "icing",
            "scale" : [
                0.10000002384185791,
                0.10000002384185791,
                0.10000002384185791
            ],
            "translation" : [
                0,
                0.059999994933605194,
                0
            ]
        }
    ],
    "materials" : [
        {
            "doubleSided" : true,
            "name" : "Material.001",
            "pbrMetallicRoughness" : {
                "baseColorFactor" : [
                    0.8796228170394897,
                    0.4396570324897766,
                    0.13286837935447693,
                    1
                ],
                "metallicFactor" : 0,
                "roughnessFactor" : 0.5
            }
        },
        {
            "doubleSided" : true,
            "name" : "Material",
            "pbrMetallicRoughness" : {
                "baseColorFactor" : [
                    0.9559736251831055,
                    0.42869043350219727,
                    0.5149176120758057,
                    1
                ],
                "metallicFactor" : 0,
                "roughnessFactor" : 0.20886075496673584
            }
        }
    ],
    "meshes" : [
        {
            "name" : "Torus",
            "primitives" : [
                {
                    "attributes" : {
                        "POSITION" : 0,
                        "NORMAL" : 1,
                        "TEXCOORD_0" : 2
                    },
                    "indices" : 3,
                    "material" : 0
                }
            ]
        },
        {
            "name" : "Torus.001",
            "primitives" : [
                {
                    "attributes" : {
                        "POSITION" : 4,
                        "NORMAL" : 5,
                        "TEXCOORD_0" : 6
                    },
                    "indices" : 7,
                    "material" : 1
                }
            ]
        }
    ],
    "accessors" : [
        {
            "bufferView" : 0,
            "componentType" : 5126,
            "count" : 1372,
            "max" : [
                1.5761266946792603,
                0.5857234001159668,
                1.5760594606399536
            ],
            "min" : [
                -1.5170353651046753,
                -0.6378229856491089,
                -1.5387269258499146
            ],
            "type" : "VEC3"
        },
        {
            "bufferView" : 1,
            "componentType" : 5126,
            "count" : 1372,
            "type" : "VEC3"
        },
        {
            "bufferView" : 2,
            "componentType" : 5126,
            "count" : 1372,
            "type" : "VEC2"
        },
        {
            "bufferView" : 3,
            "componentType" : 5123,
            "count" : 7200,
            "type" : "SCALAR"
        },
        {
            "bufferView" : 4,
            "componentType" : 5126,
            "count" : 22269,
            "max" : [
                1.5864877700805664,
                0.6230311393737793,
                1.5907002687454224
            ],
            "min" : [
                -1.5709152221679688,
                -0.4304172396659851,
                -1.5092391967773438
            ],
            "type" : "VEC3"
        },
        {
            "bufferView" : 5,
            "componentType" : 5126,
            "count" : 22269,
            "type" : "VEC3"
        },
        {
            "bufferView" : 6,
            "componentType" : 5126,
            "count" : 22269,
            "type" : "VEC2"
        },
        {
            "bufferView" : 7,
            "componentType" : 5123,
            "count" : 125184,
            "type" : "SCALAR"
        }
    ],
    "bufferViews" : [
        {
            "buffer" : 0,
            "byteLength" : 16464,
            "byteOffset" : 0
        },
        {
            "buffer" : 0,
            "byteLength" : 16464,
            "byteOffset" : 16464
        },
        {
            "buffer" : 0,
            "byteLength" : 10976,
            "byteOffset" : 32928
        },
        {
            "buffer" : 0,
            "byteLength" : 14400,
            "byteOffset" : 43904
        },
        {
            "buffer" : 0,
            "byteLength" : 267228,
            "byteOffset" : 58304
        },
        {
            "buffer" : 0,
            "byteLength" : 267228,
            "byteOffset" : 325532
        },
        {
            "buffer" : 0,
            "byteLength" : 178152,
            "byteOffset" : 592760
        },
        {
            "buffer" : 0,
            "byteLength" : 250368,
            "byteOffset" : 770912
        }
    ],
    "buffers" : [
        {
            "byteLength" : 1021280,
            "uri" : "data:application/octet-stream;base64,"
        }
    ]
}
